<svg id="Layer_1" data-name="Layer 1" xmlns="http://www.w3.org/2000/svg" viewBox="0 0 512 512"><defs><style>.cls-1,.cls-10,.cls-8{fill:#fff}.cls-1{opacity:0}.cls-2{fill:#997d55}.cls-3{fill:#ddd58c}.cls-4{fill:#74a34b}.cls-5{fill:#84433a}.cls-6{fill:#ddcdab}.cls-7{fill:#d1bfa1}.cls-9{fill:#e5e5e5}.cls-10{opacity:.25}.cls-11{opacity:.5}.cls-12{opacity:.15}</style></defs><title>icon_512</title><path class="cls-1" d="M0 0h512v512H0z"/><path class="cls-2" d="M430.68 129.72h-129c-11.36 6.79-28.38 11.34-47.43 11.34s-36.07-4.55-47.43-11.34h-126c-5.45 0-8.48 3-8.48 6.79l-.11 27.15L254.83 175l182.64-11.34V136.5a6.79 6.79 0 0 0-6.79-6.78z"/><path class="cls-3" d="M178.19 445.69a55.74 55.74 0 0 1-59.93-50.85L96.18 243.1 93.26 89.79c.21-31.34 20.39-57.43 50.85-59.93 30.47-2.5 54 19.84 59.93 50.85l22.07 151.74L229 385.76a55.74 55.74 0 0 1-50.81 59.93z"/><path class="cls-4" d="M362 174.94a58.29 58.29 0 0 0-74.15-55.82 58.25 58.25 0 0 0-84.9 0A58.29 58.29 0 0 0 128.76 175a58.3 58.3 0 0 0 27.5 109.72h.18a94.3 94.3 0 0 0 177.83 0h.35A58.3 58.3 0 0 0 362 174.94z"/><path class="cls-5" d="M371.32 135.08v-76a7.68 7.68 0 0 0 0-14.63v-9.5a13.82 13.82 0 0 0-13.78-13.78h-25.79A13.82 13.82 0 0 0 318 34.95v9.5a7.68 7.68 0 0 0 0 14.63v76a56.52 56.52 0 0 0-47 55.52v207.46a56.48 56.48 0 0 0 56.32 56.32H362a56.48 56.48 0 0 0 56.32-56.32V190.59a56.52 56.52 0 0 0-47-55.51z"/><path class="cls-6" d="M437.47 163.65a6.79 6.79 0 0 0-6.79-6.79H302.26c-11.36 6.79-28.38 11.34-47.43 11.34s-36.07-4.55-47.43-11.34H79a6.79 6.79 0 0 0-6.79 6.79l13.55 177.21-13.57 119.59c0 15.62 12.78 29 28.41 29h308.46c15.62 0 28.41-13.37 28.41-29l-13.58-119.3z"/><path class="cls-7" d="M430.68 156.87H302.26c-11.36 6.79-28.38 11.34-47.43 11.34s-36.07-4.55-47.43-11.34H79a6.79 6.79 0 0 0-6.79 6.79l13.55 176.47h338.13l13.58-176.48a6.79 6.79 0 0 0-6.79-6.78z"/><circle class="cls-8" cx="254.83" cy="331.71" r="26.2" transform="rotate(-45 254.836 331.703)"/><path class="cls-8" d="M179.31 407.23a106.8 106.8 0 1 1 151.2-.17L350 426.6a134.43 134.43 0 1 0-190.28.17z"/><path class="cls-8" d="M216.92 369.62a53.61 53.61 0 1 1 76-.18l19 19a80.42 80.42 0 1 0-113.89.17z"/><path class="cls-9" d="M159.77 236.65a134.08 134.08 0 0 0-39.08 103.48h27.7a106.78 106.78 0 1 1 212.88 0H389a134.4 134.4 0 0 0-229.23-103.48z"/><path class="cls-9" d="M198 274.84a80.23 80.23 0 0 0-23.08 65.29h27.06a53.56 53.56 0 1 1 105.77 0h27.06A80.39 80.39 0 0 0 198 274.84z"/><path class="cls-9" d="M236.3 313.18a26.18 26.18 0 0 0-6.26 27h49.58a26.19 26.19 0 0 0-43.32-27z"/><path class="cls-10" d="M79 163.65h128.39c11.36 6.79 28.38 11.34 47.43 11.34s36.07-4.55 47.43-11.34h128.43a6.77 6.77 0 0 1 6.47 4.85l.31-4.85a6.79 6.79 0 0 0-6.79-6.79H302.26c-11.36 6.79-28.38 11.34-47.43 11.34s-36.07-4.55-47.43-11.34H79a6.79 6.79 0 0 0-6.79 6.79l.31 4.86a6.77 6.77 0 0 1 6.48-4.86z"/><path class="cls-11 cls-2" d="M409.06 482.67H100.59c-14.27 0-26.13-11.17-28.09-25l-.32 2.78c0 15.62 12.78 29 28.41 29h308.47c15.62 0 28.41-13.37 28.41-29l-.32-2.78c-1.96 13.84-13.82 25-28.09 25z"/><path class="cls-12" d="M430.68 143.33h-38.17a69.32 69.32 0 0 1 8.49 6.79h-98.74a77 77 0 0 1-21 8.25A56.53 56.53 0 0 1 318 135.08v-16.4s-4-.9-6.79-1.23v17.63c-17.24 2.92-31.87 10.36-40 25.19a115.4 115.4 0 0 1-16.33 1.19c-19.05 0-36.07-4.55-47.43-11.34h-73.12c6.89-14.31 24.29-33.2 52.72-33.2a58.31 58.31 0 0 1 15.85 2.2 48.81 48.81 0 0 1 5.87-5.47l-.9-6.65c-5 2.87-7.83 4.54-11.75 8.71a58.31 58.31 0 0 0-15.85-2.2c-30.35 0-45.72 21.44-55.54 36.59H94.41l-.06-6.79H79.07a6.79 6.79 0 0 1-6.79-6.79l-.06 26.67a6.75 6.75 0 0 1 6.78-6.32h128.39c11.36 6.79 28.38 11.34 47.43 11.34s36.07-4.55 47.43-11.34h128.43a6.79 6.79 0 0 1 6.79 6.79v-27.12a6.79 6.79 0 0 1-6.79 6.79zM72.22 163.35v-.14s.01.12 0 .14z"/></svg>